<svg width="17" height="18" viewBox="0 0 17 18" fill="none" xmlns="http://www.w3.org/2000/svg">
<path d="M10.5 9V16.88C10.54 17.18 10.44 17.5 10.21 17.71C10.1175 17.8027 10.0076 17.8762 9.88663 17.9264C9.76566 17.9766 9.63598 18.0024 9.50501 18.0024C9.37404 18.0024 9.24436 17.9766 9.12338 17.9264C9.00241 17.8762 8.89252 17.8027 8.80001 17.71L6.79001 15.7C6.68101 15.5933 6.59812 15.4629 6.54782 15.319C6.49751 15.175 6.48115 15.0213 6.50001 14.87V9H6.47001L0.710009 1.62C0.547617 1.41153 0.474343 1.14726 0.506197 0.88493C0.538051 0.622602 0.672444 0.383546 0.880009 0.22C1.07001 0.08 1.28001 0 1.50001 0H15.5C15.72 0 15.93 0.08 16.12 0.22C16.3276 0.383546 16.462 0.622602 16.4938 0.88493C16.5257 1.14726 16.4524 1.41153 16.29 1.62L10.53 9H10.5Z" fill="#3D3936"/>
</svg>
